<svg xmlns="http://www.w3.org/2000/svg" xmlns:xlink="http://www.w3.org/1999/xlink" width="500" zoomAndPan="magnify" viewBox="0 0 375 374.999991" height="500" preserveAspectRatio="xMidYMid meet" version="1.0"><defs><g/><clipPath id="5ff3e31178"><path d="M 292.230469 169.734375 L 333.5625 169.734375 L 333.5625 206.695312 L 292.230469 206.695312 Z M 292.230469 169.734375 " clip-rule="nonzero"/></clipPath></defs><g clip-path="url(#5ff3e31178)"><path fill="#5d3fd3" d="M 292.230469 169.734375 L 333.519531 169.734375 L 333.519531 206.695312 L 292.230469 206.695312 Z M 292.230469 169.734375 " fill-opacity="1" fill-rule="nonzero"/></g><g fill="#5d3fd3" fill-opacity="1"><g transform="translate(37.500002, 200.199623)"><g><path d="M 7.5625 0 L 2.421875 0 L 2.421875 -27.1875 L 20.5625 -27.1875 L 20.5625 -22.59375 L 7.5625 -22.59375 L 7.5625 -15.890625 L 19.203125 -15.890625 L 19.203125 -11.328125 L 7.5625 -11.328125 Z M 7.5625 0 "/></g></g></g><g fill="#5d3fd3" fill-opacity="1"><g transform="translate(60.808115, 200.199623)"><g><path d="M 19.0625 0 L 2.421875 0 L 2.421875 -27.1875 L 7.5625 -27.1875 L 7.5625 -4.59375 L 19.0625 -4.59375 Z M 19.0625 0 "/></g></g></g><g fill="#5d3fd3" fill-opacity="1"><g transform="translate(82.049202, 200.199623)"><g><path d="M 7.5625 0 L 2.421875 0 L 2.421875 -27.1875 L 7.5625 -27.1875 Z M 7.5625 0 "/></g></g></g><g fill="#5d3fd3" fill-opacity="1"><g transform="translate(93.810456, 200.199623)"><g><path d="M 14.640625 0.5 C 12.367188 0.5 10.398438 0.117188 8.734375 -0.640625 C 7.066406 -1.398438 5.6875 -2.445312 4.59375 -3.78125 C 3.5 -5.113281 2.691406 -6.617188 2.171875 -8.296875 C 1.648438 -9.984375 1.390625 -11.753906 1.390625 -13.609375 C 1.390625 -15.460938 1.648438 -17.234375 2.171875 -18.921875 C 2.691406 -20.609375 3.5 -22.109375 4.59375 -23.421875 C 5.6875 -24.742188 7.066406 -25.785156 8.734375 -26.546875 C 10.398438 -27.304688 12.367188 -27.6875 14.640625 -27.6875 C 18.160156 -27.6875 20.957031 -26.851562 23.03125 -25.1875 C 25.113281 -23.53125 26.429688 -21.359375 26.984375 -18.671875 L 21.34375 -18.671875 C 20.894531 -20.078125 20.113281 -21.164062 19 -21.9375 C 17.882812 -22.707031 16.421875 -23.09375 14.609375 -23.09375 C 12.878906 -23.09375 11.429688 -22.675781 10.265625 -21.84375 C 9.097656 -21.007812 8.21875 -19.878906 7.625 -18.453125 C 7.03125 -17.035156 6.734375 -15.4375 6.734375 -13.65625 C 6.734375 -11.820312 7.039062 -10.1875 7.65625 -8.75 C 8.28125 -7.3125 9.207031 -6.175781 10.4375 -5.34375 C 11.675781 -4.507812 13.222656 -4.09375 15.078125 -4.09375 C 17.210938 -4.09375 18.910156 -4.632812 20.171875 -5.71875 C 21.429688 -6.800781 22.085938 -8.410156 22.140625 -10.546875 L 16.109375 -10.546875 L 16.109375 -14.796875 L 27.234375 -14.796875 L 27.234375 0 L 22.5625 0 L 22.5625 -3.0625 C 21.613281 -1.707031 20.421875 -0.773438 18.984375 -0.265625 C 17.546875 0.242188 16.097656 0.5 14.640625 0.5 Z M 14.640625 0.5 "/></g></g></g><g fill="#5d3fd3" fill-opacity="1"><g transform="translate(124.780852, 200.199623)"><g><path d="M 7.5625 0 L 2.421875 0 L 2.421875 -27.1875 L 7.5625 -27.1875 L 7.5625 -15.9375 L 19.203125 -15.9375 L 19.203125 -27.1875 L 24.34375 -27.1875 L 24.34375 0 L 19.203125 0 L 19.203125 -11.328125 L 7.5625 -11.328125 Z M 7.5625 0 "/></g></g></g><g fill="#5d3fd3" fill-opacity="1"><g transform="translate(153.363461, 200.199623)"><g><path d="M 13.796875 0 L 8.65625 0 L 8.65625 -22.59375 L 0.359375 -22.59375 L 0.359375 -27.1875 L 22.0625 -27.1875 L 22.0625 -22.59375 L 13.796875 -22.59375 Z M 13.796875 0 "/></g></g></g><g fill="#5d3fd3" fill-opacity="1"><g transform="translate(177.612794, 200.199623)"><g><path d="M 12.65625 0.359375 C 10.875 0.359375 9.1875 0.0664062 7.59375 -0.515625 C 6 -1.097656 4.660156 -2.023438 3.578125 -3.296875 C 2.492188 -4.566406 1.800781 -6.210938 1.5 -8.234375 L 4.8125 -8.234375 C 5.09375 -6.785156 5.648438 -5.648438 6.484375 -4.828125 C 7.316406 -4.003906 8.296875 -3.421875 9.421875 -3.078125 C 10.554688 -2.734375 11.679688 -2.5625 12.796875 -2.5625 C 14.691406 -2.5625 16.179688 -2.957031 17.265625 -3.75 C 18.347656 -4.550781 18.890625 -5.757812 18.890625 -7.375 C 18.890625 -8.351562 18.679688 -9.148438 18.265625 -9.765625 C 17.847656 -10.378906 17.28125 -10.875 16.5625 -11.25 C 15.851562 -11.632812 15.050781 -11.945312 14.15625 -12.1875 C 13.269531 -12.425781 12.34375 -12.648438 11.375 -12.859375 C 10.300781 -13.078125 9.25 -13.328125 8.21875 -13.609375 C 7.1875 -13.898438 6.25 -14.296875 5.40625 -14.796875 C 4.5625 -15.296875 3.882812 -15.960938 3.375 -16.796875 C 2.863281 -17.640625 2.609375 -18.726562 2.609375 -20.0625 C 2.609375 -21.601562 2.976562 -22.929688 3.71875 -24.046875 C 4.46875 -25.171875 5.507812 -26.035156 6.84375 -26.640625 C 8.175781 -27.242188 9.734375 -27.546875 11.515625 -27.546875 C 13.054688 -27.546875 14.519531 -27.28125 15.90625 -26.75 C 17.300781 -26.21875 18.488281 -25.378906 19.46875 -24.234375 C 20.457031 -23.097656 21.097656 -21.585938 21.390625 -19.703125 L 18.21875 -19.703125 C 17.957031 -20.941406 17.476562 -21.914062 16.78125 -22.625 C 16.09375 -23.34375 15.285156 -23.851562 14.359375 -24.15625 C 13.429688 -24.46875 12.46875 -24.625 11.46875 -24.625 C 9.644531 -24.625 8.253906 -24.238281 7.296875 -23.46875 C 6.347656 -22.695312 5.875 -21.65625 5.875 -20.34375 C 5.875 -19.257812 6.203125 -18.410156 6.859375 -17.796875 C 7.515625 -17.191406 8.367188 -16.726562 9.421875 -16.40625 C 10.484375 -16.09375 11.617188 -15.804688 12.828125 -15.546875 C 13.941406 -15.304688 15.050781 -15.03125 16.15625 -14.71875 C 17.269531 -14.40625 18.273438 -13.972656 19.171875 -13.421875 C 20.078125 -12.878906 20.800781 -12.144531 21.34375 -11.21875 C 21.894531 -10.300781 22.171875 -9.09375 22.171875 -7.59375 C 22.171875 -5.1875 21.363281 -3.257812 19.75 -1.8125 C 18.132812 -0.363281 15.769531 0.359375 12.65625 0.359375 Z M 12.65625 0.359375 "/></g></g></g><g fill="#5d3fd3" fill-opacity="1"><g transform="translate(203.37997, 200.199623)"><g><path d="M 12.65625 0.359375 C 9.207031 0.359375 6.660156 -0.507812 5.015625 -2.25 C 3.378906 -4 2.5625 -6.382812 2.5625 -9.40625 L 2.5625 -27.1875 L 5.84375 -27.1875 L 5.84375 -9.40625 C 5.84375 -7.289062 6.382812 -5.617188 7.46875 -4.390625 C 8.550781 -3.171875 10.28125 -2.5625 12.65625 -2.5625 C 15.03125 -2.5625 16.753906 -3.171875 17.828125 -4.390625 C 18.910156 -5.617188 19.453125 -7.289062 19.453125 -9.40625 L 19.453125 -27.1875 L 22.734375 -27.1875 L 22.734375 -9.40625 C 22.734375 -6.382812 21.914062 -4 20.28125 -2.25 C 18.644531 -0.507812 16.101562 0.359375 12.65625 0.359375 Z M 12.65625 0.359375 "/></g></g></g><g fill="#5d3fd3" fill-opacity="1"><g transform="translate(230.501406, 200.199623)"><g><path d="M 6.09375 0 L 2.8125 0 L 2.8125 -27.1875 L 6.09375 -27.1875 Z M 6.09375 0 "/></g></g></g><g fill="#5d3fd3" fill-opacity="1"><g transform="translate(241.229128, 200.199623)"><g><path d="M 12.96875 0 L 9.6875 0 L 9.6875 -24.234375 L 0.5 -24.234375 L 0.5 -27.1875 L 22.203125 -27.1875 L 22.203125 -24.234375 L 12.96875 -24.234375 Z M 12.96875 0 "/></g></g></g><g fill="#5d3fd3" fill-opacity="1"><g transform="translate(265.713318, 200.199623)"><g><path d="M 20.390625 0 L 2.8125 0 L 2.8125 -27.1875 L 20.390625 -27.1875 L 20.390625 -24.234375 L 6.09375 -24.234375 L 6.09375 -15.109375 L 18.71875 -15.109375 L 18.71875 -12.1875 L 6.09375 -12.1875 L 6.09375 -2.953125 L 20.390625 -2.953125 Z M 20.390625 0 "/></g></g></g><g fill="#ffffff" fill-opacity="1"><g transform="translate(296.168656, 200.205446)"><g><path d="M 19.4375 0 L 16.3125 -8.078125 L 6.109375 -8.078125 L 3 0 L 0 0 L 9.953125 -25.546875 L 12.609375 -25.546875 L 22.5 0 Z M 15.421875 -10.703125 L 12.4375 -18.71875 C 12.375 -18.925781 12.265625 -19.269531 12.109375 -19.75 C 11.953125 -20.226562 11.789062 -20.722656 11.625 -21.234375 C 11.457031 -21.742188 11.320312 -22.15625 11.21875 -22.46875 C 11.101562 -21.988281 10.976562 -21.515625 10.84375 -21.046875 C 10.71875 -20.578125 10.585938 -20.140625 10.453125 -19.734375 C 10.328125 -19.335938 10.21875 -19 10.125 -18.71875 L 7.09375 -10.703125 Z M 15.421875 -10.703125 "/></g></g></g><g fill="#ffffff" fill-opacity="1"><g transform="translate(320.480392, 200.205446)"><g><path d="M 3.484375 0 L 3.484375 -25.4375 L 6.4375 -25.4375 L 6.4375 0 Z M 3.484375 0 "/></g></g></g></svg>