<svg xmlns="http://www.w3.org/2000/svg" width="512" height="512" viewBox="0 0 512 512">
  <circle cx="256" cy="256" r="256" fill="#25D366"/>
  <path d="M362.4 149.2C335.6 122.2 299.4 107 261 107c-79.4 0-144 64.6-144 144 0 25.4 6.6 50.2 19.2 72.2L116 396l75.2-19.7c21 11.5 44.8 17.5 69 17.5h.1c79.3 0 143.9-64.6 144-144 0-38.5-15-74.6-42-101.6zM261 371c-21.5 0-42.6-5.8-61-16.8l-4.4-2.6-45.4 11.9 12.1-44.3-2.8-4.5c-12.1-19.2-18.5-41.4-18.5-64.2 0-66 53.7-119.7 119.8-119.7 32 0 62 12.5 84.6 35.1 22.5 22.6 34.9 52.7 34.9 84.7-.1 66.1-53.8 119.8-119.9 119.8l.6-.4zm65.6-89.7c-3.6-1.8-21.2-10.5-24.5-11.7-3.3-1.2-5.7-1.8-8.1 1.8s-9.3 11.7-11.4 14.1c-2.1 2.4-4.2 2.7-7.8.9-3.6-1.8-15.2-5.6-29-17.9-10.7-9.5-17.9-21.3-20-24.9-2.1-3.6-.2-5.5 1.6-7.3 1.6-1.6 3.6-4.2 5.4-6.3 1.8-2.1 2.4-3.6 3.6-6 1.2-2.4.6-4.5-.3-6.3-.9-1.8-8.1-19.5-11.1-26.7-2.9-7-5.9-6-8.1-6.1-2.1-.1-4.5-.1-6.9-.1s-6.3.9-9.6 4.5c-3.3 3.6-12.6 12.3-12.6 30s12.9 34.8 14.7 37.2c1.8 2.4 25.4 38.8 61.5 54.4 8.6 3.7 15.3 5.9 20.5 7.6 8.6 2.7 16.5 2.3 22.7 1.4 6.9-1 21.2-8.7 24.2-17.1 3-8.4 3-15.6 2.1-17.1-.9-1.5-3.3-2.4-6.9-4.2z" fill="#fff"/>
</svg>
